<mxfile host="app.diagrams.net" modified="2021-01-07T09:48:49.814Z" agent="5.0 (Windows NT 10.0; Win64; x64) AppleWebKit/537.36 (KHTML, like Gecko) Chrome/87.0.4280.88 Safari/537.36" etag="18Vz0x_nV5pf9Ugagy4n" version="14.0.0" type="github">
  <diagram id="1Ht35DXn-JhuVOMwkHlW" name="Page-1">
    <mxGraphModel dx="1353" dy="802" grid="1" gridSize="10" guides="1" tooltips="1" connect="1" arrows="1" fold="1" page="1" pageScale="1" pageWidth="827" pageHeight="1169" math="0" shadow="0">
      <root>
        <mxCell id="0" />
        <mxCell id="1" parent="0" />
        <mxCell id="daievUbQpzk6-FgNpJxz-40" value="" style="rounded=1;whiteSpace=wrap;html=1;dashed=1;align=left;" vertex="1" parent="1">
          <mxGeometry x="640" y="10" width="160" height="455" as="geometry" />
        </mxCell>
        <mxCell id="daievUbQpzk6-FgNpJxz-38" value="" style="rounded=1;whiteSpace=wrap;html=1;align=left;dashed=1;" vertex="1" parent="1">
          <mxGeometry y="10" width="610" height="470" as="geometry" />
        </mxCell>
        <mxCell id="daievUbQpzk6-FgNpJxz-21" style="rounded=0;orthogonalLoop=1;jettySize=auto;html=1;exitX=1;exitY=0.5;exitDx=0;exitDy=0;entryX=0.002;entryY=0.187;entryDx=0;entryDy=0;entryPerimeter=0;" edge="1" parent="1" source="daievUbQpzk6-FgNpJxz-1" target="daievUbQpzk6-FgNpJxz-13">
          <mxGeometry relative="1" as="geometry" />
        </mxCell>
        <mxCell id="daievUbQpzk6-FgNpJxz-43" value="①" style="edgeLabel;html=1;align=center;verticalAlign=middle;resizable=0;points=[];fontSize=16;" vertex="1" connectable="0" parent="daievUbQpzk6-FgNpJxz-21">
          <mxGeometry x="-0.1266" y="-1" relative="1" as="geometry">
            <mxPoint x="14.63" y="-4.5" as="offset" />
          </mxGeometry>
        </mxCell>
        <mxCell id="daievUbQpzk6-FgNpJxz-31" style="edgeStyle=none;rounded=0;orthogonalLoop=1;jettySize=auto;html=1;exitX=1;exitY=0;exitDx=0;exitDy=0;entryX=0;entryY=0.5;entryDx=0;entryDy=0;" edge="1" parent="1" source="daievUbQpzk6-FgNpJxz-1" target="daievUbQpzk6-FgNpJxz-10">
          <mxGeometry relative="1" as="geometry" />
        </mxCell>
        <mxCell id="daievUbQpzk6-FgNpJxz-42" value="③" style="edgeLabel;html=1;align=center;verticalAlign=middle;resizable=0;points=[];fontSize=16;" vertex="1" connectable="0" parent="daievUbQpzk6-FgNpJxz-31">
          <mxGeometry x="-0.1321" y="2" relative="1" as="geometry">
            <mxPoint as="offset" />
          </mxGeometry>
        </mxCell>
        <mxCell id="daievUbQpzk6-FgNpJxz-1" value="APP-Front1" style="rounded=1;whiteSpace=wrap;html=1;fontStyle=1" vertex="1" parent="1">
          <mxGeometry x="20" y="260" width="120" height="60" as="geometry" />
        </mxCell>
        <mxCell id="daievUbQpzk6-FgNpJxz-22" style="edgeStyle=none;rounded=0;orthogonalLoop=1;jettySize=auto;html=1;entryX=0;entryY=0.5;entryDx=0;entryDy=0;exitX=1;exitY=0.5;exitDx=0;exitDy=0;" edge="1" parent="1" source="daievUbQpzk6-FgNpJxz-2" target="daievUbQpzk6-FgNpJxz-13">
          <mxGeometry relative="1" as="geometry" />
        </mxCell>
        <mxCell id="daievUbQpzk6-FgNpJxz-2" value="APP-Front2" style="rounded=1;whiteSpace=wrap;html=1;fontStyle=1" vertex="1" parent="1">
          <mxGeometry x="20" y="370" width="120" height="60" as="geometry" />
        </mxCell>
        <mxCell id="daievUbQpzk6-FgNpJxz-9" value="BTP-DEV" style="rounded=1;whiteSpace=wrap;html=1;align=center;fontStyle=1" vertex="1" parent="1">
          <mxGeometry x="660" y="230" width="120" height="60" as="geometry" />
        </mxCell>
        <mxCell id="daievUbQpzk6-FgNpJxz-36" style="edgeStyle=none;rounded=0;orthogonalLoop=1;jettySize=auto;html=1;entryX=0.426;entryY=1.071;entryDx=0;entryDy=0;entryPerimeter=0;" edge="1" parent="1" source="daievUbQpzk6-FgNpJxz-10" target="daievUbQpzk6-FgNpJxz-34">
          <mxGeometry relative="1" as="geometry" />
        </mxCell>
        <mxCell id="daievUbQpzk6-FgNpJxz-49" value="⑤" style="edgeLabel;html=1;align=center;verticalAlign=middle;resizable=0;points=[];fontSize=16;" vertex="1" connectable="0" parent="daievUbQpzk6-FgNpJxz-36">
          <mxGeometry x="-0.2455" y="-2" relative="1" as="geometry">
            <mxPoint as="offset" />
          </mxGeometry>
        </mxCell>
        <mxCell id="daievUbQpzk6-FgNpJxz-37" style="edgeStyle=none;rounded=0;orthogonalLoop=1;jettySize=auto;html=1;entryX=0.5;entryY=1;entryDx=0;entryDy=0;" edge="1" parent="1" source="daievUbQpzk6-FgNpJxz-10" target="daievUbQpzk6-FgNpJxz-35">
          <mxGeometry relative="1" as="geometry" />
        </mxCell>
        <mxCell id="daievUbQpzk6-FgNpJxz-45" style="edgeStyle=none;rounded=0;orthogonalLoop=1;jettySize=auto;html=1;entryX=0;entryY=0.5;entryDx=0;entryDy=0;fontSize=16;exitX=1;exitY=0.25;exitDx=0;exitDy=0;" edge="1" parent="1" source="daievUbQpzk6-FgNpJxz-10" target="daievUbQpzk6-FgNpJxz-40">
          <mxGeometry relative="1" as="geometry" />
        </mxCell>
        <mxCell id="daievUbQpzk6-FgNpJxz-48" value="④" style="edgeLabel;html=1;align=center;verticalAlign=middle;resizable=0;points=[];fontSize=16;" vertex="1" connectable="0" parent="daievUbQpzk6-FgNpJxz-45">
          <mxGeometry x="-0.0993" y="1" relative="1" as="geometry">
            <mxPoint as="offset" />
          </mxGeometry>
        </mxCell>
        <mxCell id="daievUbQpzk6-FgNpJxz-10" value="Gateway" style="rounded=1;whiteSpace=wrap;html=1;align=center;fontStyle=1" vertex="1" parent="1">
          <mxGeometry x="320" y="150" width="120" height="60" as="geometry" />
        </mxCell>
        <mxCell id="daievUbQpzk6-FgNpJxz-11" value="BTP-SIT" style="rounded=1;whiteSpace=wrap;html=1;align=center;fontStyle=1" vertex="1" parent="1">
          <mxGeometry x="660" y="310" width="120" height="60" as="geometry" />
        </mxCell>
        <mxCell id="daievUbQpzk6-FgNpJxz-12" value="BTP-UAT" style="rounded=1;whiteSpace=wrap;html=1;align=center;fontStyle=1" vertex="1" parent="1">
          <mxGeometry x="660" y="390" width="120" height="60" as="geometry" />
        </mxCell>
        <mxCell id="daievUbQpzk6-FgNpJxz-23" style="edgeStyle=none;rounded=0;orthogonalLoop=1;jettySize=auto;html=1;entryX=0;entryY=0.5;entryDx=0;entryDy=0;exitX=1.002;exitY=0.169;exitDx=0;exitDy=0;exitPerimeter=0;" edge="1" parent="1" source="daievUbQpzk6-FgNpJxz-13" target="daievUbQpzk6-FgNpJxz-9">
          <mxGeometry relative="1" as="geometry" />
        </mxCell>
        <mxCell id="daievUbQpzk6-FgNpJxz-44" value="②" style="edgeLabel;html=1;align=center;verticalAlign=middle;resizable=0;points=[];fontSize=16;" vertex="1" connectable="0" parent="daievUbQpzk6-FgNpJxz-23">
          <mxGeometry x="0.1452" y="-1" relative="1" as="geometry">
            <mxPoint x="-37.83" y="3.9299999999999997" as="offset" />
          </mxGeometry>
        </mxCell>
        <mxCell id="daievUbQpzk6-FgNpJxz-24" style="edgeStyle=none;rounded=0;orthogonalLoop=1;jettySize=auto;html=1;entryX=0;entryY=0.5;entryDx=0;entryDy=0;exitX=1;exitY=0.5;exitDx=0;exitDy=0;" edge="1" parent="1" source="daievUbQpzk6-FgNpJxz-13" target="daievUbQpzk6-FgNpJxz-11">
          <mxGeometry relative="1" as="geometry" />
        </mxCell>
        <mxCell id="daievUbQpzk6-FgNpJxz-25" style="edgeStyle=none;rounded=0;orthogonalLoop=1;jettySize=auto;html=1;entryX=0;entryY=0.5;entryDx=0;entryDy=0;exitX=1.002;exitY=0.835;exitDx=0;exitDy=0;exitPerimeter=0;" edge="1" parent="1" source="daievUbQpzk6-FgNpJxz-13" target="daievUbQpzk6-FgNpJxz-12">
          <mxGeometry relative="1" as="geometry" />
        </mxCell>
        <mxCell id="daievUbQpzk6-FgNpJxz-13" value="" style="rounded=1;whiteSpace=wrap;html=1;align=center;" vertex="1" parent="1">
          <mxGeometry x="290" y="270" width="200" height="150" as="geometry" />
        </mxCell>
        <mxCell id="daievUbQpzk6-FgNpJxz-14" value="" style="endArrow=none;dashed=1;html=1;entryX=1;entryY=0.25;entryDx=0;entryDy=0;exitX=0;exitY=0.25;exitDx=0;exitDy=0;" edge="1" parent="1">
          <mxGeometry width="50" height="50" relative="1" as="geometry">
            <mxPoint x="290" y="319.5" as="sourcePoint" />
            <mxPoint x="490" y="319.5" as="targetPoint" />
          </mxGeometry>
        </mxCell>
        <mxCell id="daievUbQpzk6-FgNpJxz-15" value="" style="endArrow=none;dashed=1;html=1;entryX=1;entryY=0.75;entryDx=0;entryDy=0;exitX=0;exitY=0.75;exitDx=0;exitDy=0;" edge="1" parent="1">
          <mxGeometry width="50" height="50" relative="1" as="geometry">
            <mxPoint x="290" y="376.5" as="sourcePoint" />
            <mxPoint x="490" y="376.5" as="targetPoint" />
          </mxGeometry>
        </mxCell>
        <mxCell id="daievUbQpzk6-FgNpJxz-16" value="Keycloak" style="text;html=1;strokeColor=none;fillColor=none;align=center;verticalAlign=middle;whiteSpace=wrap;rounded=0;fontStyle=1" vertex="1" parent="1">
          <mxGeometry x="310" y="270" width="40" height="20" as="geometry" />
        </mxCell>
        <mxCell id="daievUbQpzk6-FgNpJxz-18" value="client-dev" style="text;html=1;strokeColor=none;fillColor=none;align=center;verticalAlign=middle;whiteSpace=wrap;rounded=0;" vertex="1" parent="1">
          <mxGeometry x="360" y="280" width="60" height="20" as="geometry" />
        </mxCell>
        <mxCell id="daievUbQpzk6-FgNpJxz-19" value="client-sit" style="text;html=1;strokeColor=none;fillColor=none;align=center;verticalAlign=middle;whiteSpace=wrap;rounded=0;" vertex="1" parent="1">
          <mxGeometry x="360" y="335" width="60" height="20" as="geometry" />
        </mxCell>
        <mxCell id="daievUbQpzk6-FgNpJxz-20" value="client-uat" style="text;html=1;strokeColor=none;fillColor=none;align=center;verticalAlign=middle;whiteSpace=wrap;rounded=0;" vertex="1" parent="1">
          <mxGeometry x="360" y="390" width="60" height="20" as="geometry" />
        </mxCell>
        <mxCell id="daievUbQpzk6-FgNpJxz-34" value="APP-Service1" style="rounded=1;whiteSpace=wrap;html=1;align=center;fontStyle=1" vertex="1" parent="1">
          <mxGeometry x="280" y="20" width="120" height="60" as="geometry" />
        </mxCell>
        <mxCell id="daievUbQpzk6-FgNpJxz-35" value="APP-Service2" style="rounded=1;whiteSpace=wrap;html=1;align=center;fontStyle=1" vertex="1" parent="1">
          <mxGeometry x="440" y="20" width="120" height="60" as="geometry" />
        </mxCell>
        <mxCell id="daievUbQpzk6-FgNpJxz-39" value="技术中台-DEV环境" style="text;html=1;strokeColor=none;fillColor=none;align=center;verticalAlign=middle;whiteSpace=wrap;rounded=0;dashed=1;fontStyle=3;fontSize=16;" vertex="1" parent="1">
          <mxGeometry x="30" y="25" width="170" height="20" as="geometry" />
        </mxCell>
        <mxCell id="daievUbQpzk6-FgNpJxz-41" value="基础平台" style="text;html=1;strokeColor=none;fillColor=none;align=center;verticalAlign=middle;whiteSpace=wrap;rounded=0;dashed=1;fontStyle=3;fontSize=16;" vertex="1" parent="1">
          <mxGeometry x="640" y="25" width="70" height="20" as="geometry" />
        </mxCell>
      </root>
    </mxGraphModel>
  </diagram>
</mxfile>
